<svg xmlns="http://www.w3.org/2000/svg" fill="none" viewBox="0 0 50 901">
  <path fill="#181818"
    d="M9.1 297.7a5.3 5.3 0 0 1 3.8 1.4 6 6 0 0 1 1.8 3.7 4 4 0 0 1-.4 1.8c-.2.5-.5 1-1 1.4a4.2 4.2 0 0 1-3.1 1.2 4.5 4.5 0 0 1-4.4-3.4L5 302a7.1 7.1 0 0 0-2.1 5.3 6.6 6.6 0 0 0 5.3 6.7l38 10.9v-8h2.3v21.4h-2.3v-6.7l-32.8-9.5c-7-2-9-3-10.8-5.2a14 14 0 0 1-2.7-8.3A10.2 10.2 0 0 1 9 297.7Zm8.7 34.7c8.3 2.2 15.7 9.3 15.7 16.5a7.8 7.8 0 0 1-5.8 7.5v.2l4.6 1.4v6l-25.5-7.4c-2.4-.7-3.7-.2-3.7 1.2 0 2 2.2 3.5 5.8 4.5l8 2.3v2.4l-8.5-2.4c-6-1.8-7.8-4.3-7.8-7.8a5 5 0 0 1 4-5.3 5 5 0 0 1 2.3.1v-.3A14.3 14.3 0 0 1 0 340.6c0-7.2 9.7-10.3 17.8-8.2Zm-1.5 21.2c9.8 2.6 14.9 0 14.9-5a7.6 7.6 0 0 0-6.5-7.1L10 337.4c-4.9-1.4-7.7.3-7.7 3.5 0 5.2 6.6 10.6 14 12.7ZM13 407C5.2 404.7.2 402.8.2 396.9c0-3.2 2.2-5.5 6.7-5.5A12 12 0 0 1 0 381.3c0-5.5 3.4-8.5 9.5-6.6l14.8 4.8c4.7 1.5 6.5 1.4 6.5-.5 0-1.8-2.2-3.6-6.3-5l-3.2-1v-2.2l4 1.1c6.2 1.8 8.2 4.2 8.2 8.5a6.4 6.4 0 0 1-3.1 5.4c-2 .7-4 .5-6-.3l-16-5.2c-3.8-1.2-5.8-.2-5.8 2.5 0 4.4 7.3 9 16.7 11.7l13 3.6v6L9 397.4c-3.9-1-5.9-.5-5.9 1.2 0 2.2 2.6 4 9.8 6.2v2.2Zm16.6 34.8c.5-.5 1-1 1.3-1.6.3-.6.4-1.3.3-2a7 7 0 0 0-4.6-6.8c-2.4-1.3-5.7-2.4-6.3-5.4H20c0 4.7-2.7 7.5-7.2 6.8l-6.1-1c-2.8-.5-4 .2-4 2.1 0 2.9 2.6 5.2 7.2 6.6l4.8 1.4v2.3L9 442.7c-6.3-1.8-9-6-9-10.4 0-5.8 3-7.5 8.8-6.4l5.6.9c4 .7 4.5-2.8 4.5-5.3L1 416.4v-6l45.2 13V418h2.3v8.1l1.3 3.7-.4.4-28.4-8.1c0 3.6 2.2 5.3 5.4 6.7 4.2 1.9 7 4.5 7 9.1a7.2 7.2 0 0 1-4.6 7c-1 .3-1.9.4-2.9.4a5 5 0 0 1-5-4.5 4.1 4.1 0 0 1 1-3.1 4 4 0 0 1 3-1.4 4.2 4.2 0 0 1 4.2 3.8l.4 1.7Zm0 38.2a4.1 4.1 0 0 0 1.6-3.7 7 7 0 0 0-4.6-6.8c-2.4-1.3-5.7-2.3-6.3-5.4H20c0 4.7-2.7 7.5-7.2 6.8l-6.1-1c-2.8-.4-4 .3-4 2.2 0 2.8 2.6 5.2 7.2 6.5l4.8 1.4v2.4L9 480.8c-6.3-1.8-9-6-9-10.4 0-5.8 3-7.4 8.8-6.3l5.6.9c4 .7 4.5-2.9 4.5-5.3L1 454.6v-6.1l45.2 12.9V456h2.3v8.4l1.3 3.6-.4.4-28.4-8c0 3.6 2.2 5.3 5.4 6.7 4.2 1.9 7 4.5 7 9.2a7.3 7.3 0 0 1-3.3 6.2 7.1 7.1 0 0 1-4.2 1.1 5 5 0 0 1-5-4.6 4.1 4.1 0 0 1 8.1-.5l.5 1.4ZM13 523.9C5.2 521.5.2 519.6.2 513.7c0-3.2 2.2-5.5 6.7-5.5v-.1A12 12 0 0 1 .1 498c0-5.5 3.4-8.5 9.5-6.5l14.8 4.7c4.7 1.5 6.5 1.4 6.5-.4 0-1.9-2.2-3.7-6.3-5l-3.1-1v-2.3l3.8 1.1c6.3 1.8 8.3 4.3 8.3 8.5a6.2 6.2 0 0 1-3.1 5.4c-2 .7-4 .6-6-.3l-16-5.1c-3.8-1.3-5.8-.3-5.8 2.4 0 4.4 7.3 9 16.7 11.6l13 3.7v6L9 514.2c-3.9-1.2-5.9-.6-5.9 1.1 0 2.3 2.6 4 9.8 6.2v2.4Zm16.2 30.7a4.2 4.2 0 0 1-4.2-4c0-1.2.5-2.3 1.4-3l1.3-1.5c-6-4.7-13-8.1-20.4-10.1l-6.1-1.8v-5.8l26.1 7.4c2.7.8 3.8 0 3.8-1.1 0-2-2.3-3.6-6.5-4.8l-3.3-1v-2.4l4.6 1.3c5 1.5 7.8 4.3 7.8 8a4.5 4.5 0 0 1-3.4 4.8c-2.8.2-5.6-.1-8.3-1v.4c3 1.5 6 3.3 8.7 5.4a6.3 6.3 0 0 1 2.8 4.9 4.2 4.2 0 0 1-4.2 4.3Zm-28.1-3.7h2.3v5.4l26.6 7.5v-5.4h2.3v8.2l1.2 3.5-.5.5L3.4 562v5.5H1.1v-16.7ZM43 565.3a4.3 4.3 0 0 1 4.1 5.2 4.3 4.3 0 0 1-3.3 3.4c-.9.1-1.7 0-2.5-.3a4.2 4.2 0 0 1-2.7-4 4.4 4.4 0 0 1 4.4-4.3ZM2.4 0h2.3v6.6l42.9 12.3v-6.6h2.3v15.3L14 29.4l36 21.4v14.9h-2.3V59l-43-12.3v6.6H2.5v-20h2.3v6.6l42 12v-.2L2 25v-1.7L46.3 21v-.2L4.7 9.2v6.6H2.4V0ZM19 61c8.3 2.2 15.8 9.3 15.8 16.6a7.8 7.8 0 0 1-5.9 7.4v.3l4.7 1.4v6L8 85.3c-2.5-.7-3.7-.2-3.7 1.3 0 2 2 3.4 5.8 4.5l7.8 2.2v2.5l-8.4-2.5c-6-1.8-7.8-4.3-7.8-7.8 0-.8 0-1.6.4-2.3a5 5 0 0 1 6-2.9V80a14.1 14.1 0 0 1-6.9-10.7C1.3 62 10.9 58.9 19 61Zm-1.5 21.2c9.8 2.7 15 0 15-5a7.8 7.8 0 0 0-6.6-7.1L11.3 66c-5-1.4-7.7.4-7.7 3.6 0 5.2 6.5 10.5 14 12.6Zm1.5 18.2c8.3 2.1 15.8 9.3 15.8 16.5a7.8 7.8 0 0 1-5.9 7.5v.2l4.7 1.4v6L8 124.7c-2.5-.7-3.7-.2-3.7 1.3 0 2 2 3.4 5.8 4.4l7.8 2.3v2.4l-8.4-2.4c-6-1.8-7.8-4.3-7.8-7.8a5 5 0 0 1 6.3-5.2v-.3a14.2 14.2 0 0 1-6.8-10.7c0-7.3 9.6-10.4 17.7-8.3Zm-1.5 21.1c9.8 2.7 15 0 15-4.8a7.7 7.7 0 0 0-6.6-7.3l-14.7-4c-5-1.5-7.7.3-7.7 3.5 0 5.2 6.6 10.7 14 12.6Zm13 44.9a4.2 4.2 0 0 1-4.3-4.1 4.3 4.3 0 0 1 1.4-3l1.4-1.4a59 59 0 0 0-20.5-10.1l-6-1.8v-5.9l26 7.5c2.7.8 3.8 0 3.8-1.2 0-1.9-2.3-3.6-6.3-4.7l-3.3-1v-2.4l4.6 1.3c5 1.5 7.7 4.2 7.7 8 .1 1-.1 2.1-.7 3-.7.9-1.6 1.5-2.6 1.7a21 21 0 0 1-8.3-1v.4a47.1 47.1 0 0 1 10.7 7.5c.5.9.8 1.8.8 2.8 0 .6 0 1.1-.3 1.7-.2.5-.6 1-1 1.4-.4.4-1 .7-1.5 1-.5.2-1 .3-1.6.3Zm-17.4 6.8c-5.8-1.7-9.4 1-9.4 5.2s3 9.2 10.6 12.4v2.6c-9.5-3.8-12.9-10-12.9-15.4 0-7.8 9-12.7 18.3-9.9 8.5 2.5 15.1 10 15.1 16.8 0 5-2.9 9-7.6 8.9-6.5-.3-11.6-9.5-13-20.3l-1-.3Zm2.8.9c1.7 8.8 7.4 13.5 12.8 13.5l1.5-.1a3.3 3.3 0 0 0 2-2l.2-1.5a7.9 7.9 0 0 0-6.3-6.9l-10.2-3ZM31.4 213l-22-6.4c-3.3-1-5.3 0-5.3 2.5 0 3.2 3.6 6.5 10.2 8.6v2.3c-8.6-2.4-12.9-6.7-12.9-13a6.4 6.4 0 0 1 3.1-6.3c2.2-.8 4.6-.7 6.7.2l20 5.8V201h2.3v6.3L46 211v6l-12.4-3.6v8.6h-2.3l.2-9Zm0 25-22-6.3c-3.3-1-5.3 0-5.3 2.5 0 3.1 3.6 6.5 10.2 8.5v2.4c-8.6-2.4-12.9-6.7-12.9-13a6.4 6.4 0 0 1 3.1-6.3c2.2-.8 4.6-.7 6.7.2l20 5.8v-5.7h2.3v6.4L46 236v6l-12.4-3.5v8.6h-2.3l.2-9.1ZM19 250.6c8.3 2.2 15.8 9.3 15.8 16.5a7.8 7.8 0 0 1-5.9 7.5v.3l4.7 1.4v6L8 274.9c-2.5-.7-3.7-.2-3.7 1.3 0 2 2 3.4 5.8 4.5l7.8 2.2v2.5l-8.4-2.5c-6-1.7-7.8-4.3-7.8-7.8a5 5 0 0 1 4-5.2 5 5 0 0 1 2.3 0v-.2a14.2 14.2 0 0 1-6.8-10.8c0-7.2 9.6-10.4 17.7-8.3Zm-1.5 21.2c9.8 2.6 15 0 15-5a9 9 0 0 0-2-4.7 7.5 7.5 0 0 0-4.6-2.4l-14.7-4.1c-5-1.4-7.7.3-7.7 3.6 0 5.2 6.6 10.5 14 12.5Z" />
  <path fill="#1E1E1E"
    d="M47.6 589.8v31.8H42V596H28v22.5h-5.4V596H1.8v-6.2h45.8Zm-15.7 61.9c-3 3-7.1 4.4-12.7 4.4-5.4 0-9.8-1.3-13.4-3.9-3.5-2.6-5.2-6.6-5.2-12.1a13.6 13.6 0 0 1 4.6-10.9c3.1-2.7 7.3-4 12.6-4a20 20 0 0 1 13.4 4.3 14.2 14.2 0 0 1 5 11.4 15 15 0 0 1-4.3 10.8Zm-22.3-3.5c3 1.4 6.2 2 9.4 2a17 17 0 0 0 7.6-1.5c3.1-1.5 4.7-4.2 4.7-8 0-3.5-1.4-6-4-7.5A18.4 18.4 0 0 0 18 631a16 16 0 0 0-9 2.3c-2.3 1.6-3.5 4-3.5 7.4 0 3.6 1.4 6.1 4.2 7.5Zm25.6 20.4H13a12 12 0 0 0-4.2.8c-2 1-3 2.8-3 5.5a7.7 7.7 0 0 0 5.3 7.7c2.4.9 5 1.3 7.7 1.2h16.4v5.6H1.8V684h4.9a11.4 11.4 0 0 1-5.8-10.3c0-4.6 1.5-7.8 4.7-9.5a15 15 0 0 1 6.9-1.4h22.7v5.7Zm0 30v5.3h-4.8c1.8 1.3 3.2 3 4.3 5 .8 1.9 1.3 3.9 1.2 6 0 4.7-1.6 7.9-5 9.5-2.4 1-5 1.5-7.7 1.4H1.8v-5.7h21c1.7 0 3.4-.3 5-1 2-1 3-2.7 3-5.4.1-1 0-2.2-.3-3.2-.5-1.6-1.5-3-2.8-4-1-.9-2.1-1.5-3.4-1.9-1.6-.3-3.3-.4-5-.4H1.8v-5.6h33.4Zm-1.1 53.9c-.9 1.3-2 2.4-3.2 3.4h16.9v5.4h-46v-5h4.6a12.1 12.1 0 0 1-4.4-4.7 13.3 13.3 0 0 1-.2-11.5c.9-1.7 2-3.1 3.5-4.3 3.1-2.7 7.3-4 12.5-4 4.5-.2 9 1.1 12.6 3.7a12.1 12.1 0 0 1 5.4 10.6 12 12 0 0 1-1.7 6.4ZM9.1 740c-2.4 1.5-3.6 4-3.6 7.3a7.7 7.7 0 0 0 3.4 6.4 16 16 0 0 0 9.6 2.4c4.2 0 7.3-.8 9.4-2.5a8 8 0 0 0 3-6.4 8.4 8.4 0 0 0-3.3-6.8c-2.1-1.8-5.3-2.7-9.5-2.7-3.2 0-6.3.7-9 2.3ZM22 787.6a3 3 0 0 0 1.6 2.6 5 5 0 0 0 2.2.4 4.6 4.6 0 0 0 4.2-2c1-1.8 1.4-3.9 1.3-5.9 0-3-.8-5-2.4-6.2a7.9 7.9 0 0 0-4-1.4V770c4.2.1 7 1.4 8.7 4 1.6 2.7 2.5 5.8 2.4 9 .2 3.3-.6 6.6-2.2 9.5a7.6 7.6 0 0 1-7 3.6H7.5c-.5 0-1 .1-1.4.4a1.8 1.8 0 0 0-.5 1.5v.9l.2 1H1.6l-.5-2V796a4.6 4.6 0 0 1 2-4.3c1-.5 2-.8 3.1-1a15.3 15.3 0 0 1-5-16.1c.6-1.3 1.3-2.5 2.3-3.5a9.4 9.4 0 0 1 7-3 9 9 0 0 1 7.2 3c1.9 2 3 4.7 3.2 7.5l1.1 9.1ZM6.8 775.8a6.6 6.6 0 0 0-1.4 4.2c0 2 .5 4 1.4 5.7a7.7 7.7 0 0 0 7.4 4.7h4.5c-.4-.8-.8-1.7-1-2.6l-.7-3.2-.4-3.4c-.1-1.6-.6-3.2-1.3-4.6a5 5 0 0 0-4.7-2.6 4.6 4.6 0 0 0-3.8 1.8Zm37.7 30.6v5.6h-9.3v5.3h-4.6V812H8.8a2.4 2.4 0 0 0-2.4 1.2 5 5 0 0 0-.3 2.2v.8l.1 1.1H1.8a17.8 17.8 0 0 1-.5-4.3c0-2.5.6-4.3 2-5.3a9 9 0 0 1 5.2-1.4h22.1v-4.5h4.6v4.5h9.3Zm3.1 16.6v5.7h-6.4V823h6.4ZM35 823v5.7H1.8V823H35Zm-3.1 38.4c-3 3-7.1 4.5-12.7 4.5-5.4 0-9.8-1.4-13.4-4-3.5-2.6-5.2-6.6-5.2-12A13.6 13.6 0 0 1 5.2 839c3.1-2.7 7.3-4 12.6-4a20 20 0 0 1 13.4 4.2 14.2 14.2 0 0 1 5 11.4 15 15 0 0 1-4.3 10.8ZM9.6 858c3 1.4 6.2 2.1 9.4 2.1 2.7.1 5.3-.4 7.6-1.5 3.1-1.5 4.7-4.2 4.7-8 0-3.5-1.4-6-4-7.5a18.3 18.3 0 0 0-9.4-2.3 16 16 0 0 0-9 2.3c-2.3 1.5-3.5 4-3.5 7.3 0 3.7 1.4 6.3 4.2 7.6Zm25.6 14.8v5.3h-4.8c1.8 1.3 3.2 3 4.3 5 .8 1.8 1.3 3.9 1.2 5.9 0 4.8-1.6 8-5 9.6-2.4 1-5 1.5-7.7 1.4H1.8v-5.7h21c1.7 0 3.4-.3 5-1 2-1 3-2.7 3-5.3a8.1 8.1 0 0 0-3.1-7.3c-1-.9-2.1-1.5-3.4-1.9-1.6-.3-3.3-.4-5-.4H1.8v-5.6h33.4Z" />
</svg>
