<svg xmlns="http://www.w3.org/2000/svg" fill="none" viewBox="0 0 299 60"><path fill="#181818" d="M154.9 21.3a2.7 2.7 0 0 1 2.6-2.9 2.3 2.3 0 0 1 1.7.7l.4.7c.2.3.2.6.2 1s-.2 1-.5 1.4c-.3.4-.8.7-1.3.8l-1 .3a3.7 3.7 0 0 0 2.8 1.2 3.4 3.4 0 0 0 3.5-2.8L169 2h-4.2V.8h11.1V2h-3.4l-5 17c-1 3.6-1.5 4.7-2.7 5.7a7.2 7.2 0 0 1-4.3 1.3c-1.4.1-2.7-.3-3.8-1.2-1-.9-1.7-2.1-1.8-3.5ZM172.9 16.8c1.1-4.3 4.8-8.2 8.6-8.2a4.1 4.1 0 0 1 3.8 3h.1l.8-2.4h3l-3.8 13.3c-.3 1.2 0 1.9.7 1.9 1 0 1.8-1.1 2.3-3l1.2-4.1h1.3l-1.3 4.4c-1 3.1-2.2 4-4 4-.5 0-.9 0-1.3-.2a2.6 2.6 0 0 1-1.5-1.8v-1.2A7.4 7.4 0 0 1 177 26c-3.7 0-5.3-5-4.2-9.2Zm11 .7c1.4-5 0-7.7-2.6-7.7a4 4 0 0 0-3.7 3.4l-2.1 7.6c-.8 2.6.2 4 1.8 4 2.7 0 5.5-3.4 6.6-7.3ZM211.7 19.3c-1.3 4-2.2 6.6-5.3 6.6-1.7 0-2.9-1.2-2.9-3.5-.4 1-1.2 1.8-2.1 2.5-1 .6-2 1-3.1 1-2.9 0-4.4-1.7-3.4-4.9l2.5-7.7c.7-2.4.7-3.3-.3-3.3s-1.9 1.1-2.5 3.2L194 15h-1.3l.6-2c1-3.3 2.2-4.4 4.4-4.4a3.3 3.3 0 0 1 2.9 1.7c.3 1 .2 2-.2 3l-2.7 8.4c-.7 2-.1 3 1.3 3 2.3 0 4.7-3.8 6-8.6l2-6.8h3l-3.4 12.1c-.6 2-.3 3 .6 3 1.2 0 2.1-1.2 3.2-5h1.2ZM229.7 10.7a2.1 2.1 0 0 0-1.9-.9 3.7 3.7 0 0 0-3.5 2.4c-.7 1.2-1.2 3-2.8 3.3 2.4 0 4 1.5 3.6 3.8l-.6 3.2c-.2 1.4.2 2 1.2 2 1.4 0 2.7-1.3 3.4-3.7l.7-2.5h1.2l-.8 3c-1 3.3-3 4.7-5.4 4.7-3 0-3.9-1.5-3.3-4.6l.5-3c.3-2-1.5-2.2-2.8-2.2l-2.7 9.2h-3L220.2 2h-2.8V.8h4.2l1.9-.7.2.2-4.2 14.7c1.9 0 2.7-1 3.5-2.8 1-2.1 2.3-3.6 4.7-3.6.5 0 1 0 1.5.3a3.6 3.6 0 0 1 2.1 2.1l.3 1.5a2.5 2.5 0 0 1-2.4 2.6l-.9-.1-.7-.4-.5-.7a2 2 0 0 1-.2-.9 2.2 2.2 0 0 1 2-2.1l.8-.3ZM249.5 10.7a2.2 2.2 0 0 0-1.9-.9 3.7 3.7 0 0 0-3.5 2.4c-.6 1.2-1.2 3-2.8 3.3 2.5 0 4 1.5 3.6 3.8l-.6 3.2c-.2 1.4.2 2 1.2 2 1.4 0 2.7-1.3 3.4-3.7l.7-2.5h1.2l-.8 3c-1 3.3-3 4.7-5.4 4.7-3 0-3.9-1.6-3.3-4.6l.5-3c.4-2-1.5-2.3-2.8-2.3l-2.6 9.3h-3.2L240 2h-2.8V.8h4.3l2-.7.1.2-4.1 14.7c1.8 0 2.7-1.1 3.4-2.8 1-2.1 2.4-3.6 4.8-3.6.5 0 1 0 1.5.3a3.6 3.6 0 0 1 2 2c.3.6.3 1 .3 1.6 0 .7-.2 1.3-.7 1.8-.4.5-1 .8-1.7.8-.5 0-1-.2-1.4-.5-.4-.4-.7-1-.7-1.5a2.1 2.1 0 0 1 1.9-2.2l.7-.3ZM272.4 19.3c-1.2 4-2.2 6.6-5.3 6.6-1.7 0-2.8-1.2-2.8-3.5h-.1a6.2 6.2 0 0 1-5.3 3.5c-2.8 0-4.4-1.7-3.3-4.9l2.4-7.7c.8-2.4.7-3.3-.2-3.3-1 0-2 1.1-2.6 3.2l-.5 1.7h-1.2l.6-2c1-3.3 2.2-4.4 4.4-4.4a3.2 3.2 0 0 1 2.8 1.7 4 4 0 0 1-.2 3l-2.6 8.4c-.7 2-.2 3 1.3 3 2.3 0 4.6-3.8 6-8.6l2-6.8h3l-3.4 12.1c-.6 2-.3 3 .6 3 1.1 0 2-1.2 3.2-5h1.2ZM288.4 10.8c0 .6-.3 1.2-.7 1.6-.4.4-.9.6-1.5.7-.6 0-1.1-.3-1.5-.8l-.8-.7a30.6 30.6 0 0 0-5.2 10.7l-1 3.1h-3l4-13.6c.3-1.3 0-2-.7-2-1 0-1.9 1.3-2.5 3.4L275 15h-1.2l.7-2.4c.7-2.6 2.1-4 4.1-4 .6-.1 1.1 0 1.6.4.4.3.8.7.9 1.3.1 1.4 0 3-.5 4.3h.1c.8-1.6 1.8-3.1 2.9-4.5.3-.4.6-.8 1-1 .5-.3 1-.5 1.5-.5.6 0 1.2.2 1.6.7.4.4.6 1 .7 1.5ZM286.4 25.4v-1.2h2.8l4-13.8h-2.8V9.2h4.2l1.8-.6.3.3-4.4 15.3h2.8v1.2h-8.7ZM294 3.7a2.2 2.2 0 0 1 4.5-.4 2.2 2.2 0 0 1-1 2.3c-.3.3-.8.4-1.2.4-.6 0-1.2-.2-1.6-.7-.4-.4-.7-1-.7-1.5ZM.1 24.8v-1.2h3.5L10 1.3H6.5V0h8l1 18.6L26.4.1h7.8v1.2h-3.5l-6.4 22.3h3.5v1.2H17.4v-1.2H21l6.2-21.8H27L13 25h-.9L11.1 2H11L4.9 23.6h3.4v1.2H.1ZM31.8 16.1C33 11.8 36.7 8 40.4 8a4.1 4.1 0 0 1 4 3l.8-2.4h3l-3.8 13.2c-.3 1.3 0 2 .7 2 1 0 1.8-1.1 2.3-3l1.2-4.1H50L48.6 21c-.9 3.2-2.2 4.1-4 4.1-.5 0-.9 0-1.2-.2-.4-.2-.8-.4-1-.7-.3-.4-.5-.7-.6-1.1v-1.3a7.5 7.5 0 0 1-5.6 3.6c-3.8 0-5.4-5-4.3-9.2Zm11 .8c1.4-5 0-7.7-2.5-7.7a4 4 0 0 0-3.8 3.4l-2 7.6c-.8 2.5.1 4 1.8 4 2.7 0 5.5-3.4 6.5-7.3ZM52.3 16.1c1.1-4.3 4.9-8.1 8.6-8.1a4.1 4.1 0 0 1 3.9 3h.1l.7-2.4h3.1L65 21.8c-.3 1.3-.1 2 .7 2 1 0 1.8-1.1 2.3-3l1.2-4.1h1.2L69.1 21c-1 3.2-2.3 4.1-4 4.1-.5 0-1 0-1.3-.2a2.7 2.7 0 0 1-1.5-1.8v-1.3h-.1a7.4 7.4 0 0 1-5.6 3.6c-3.8 0-5.4-5-4.3-9.2Zm11 .8c1.4-5 0-7.7-2.5-7.7a4 4 0 0 0-3.8 3.4l-2.1 7.6c-.8 2.5.1 4 1.8 4 2.7 0 5.6-3.4 6.6-7.3ZM86.6 10.2c0 .6-.2 1.1-.6 1.5-.4.4-1 .7-1.5.7-.6 0-1.2-.3-1.6-.7l-.7-.7A30.6 30.6 0 0 0 77 21.6l-1 3.2h-3l3.9-13.6c.4-1.4 0-2-.6-2-1 0-1.9 1.2-2.5 3.3l-.5 1.7H72l.7-2.3c.8-2.7 2.2-4 4.2-4a2.3 2.3 0 0 1 2.5 1.6c0 1.5-.1 3-.6 4.4h.2c.8-1.6 1.7-3.1 2.8-4.5a3.3 3.3 0 0 1 2.6-1.5 2.2 2.2 0 0 1 2 1.4c.2.3.2.6.2.9ZM90.2 19.2c-1 3 .5 5 2.7 5s4.7-1.6 6.4-5.6h1.3c-2 5-5.2 6.7-8 6.7-4 0-6.5-4.7-5-9.5 1.2-4.4 5-7.9 8.6-7.9 2.6 0 4.8 1.5 4.7 4-.2 3.4-5 6-10.6 6.8l-.1.5Zm.4-1.4c4.6-.9 7-3.9 7-6.7v-.7l-.4-.7a1.8 1.8 0 0 0-1.4-.5 4.1 4.1 0 0 0-3.6 3.2l-1.6 5.4ZM110.8 9.7l-3.3 11.5c-.5 1.7 0 2.7 1.3 2.7 1.7 0 3.4-1.8 4.5-5.3h1.2c-1.2 4.5-3.5 6.7-6.7 6.7-.7 0-1.4 0-2-.3-.5-.3-1-.8-1.3-1.3a5 5 0 0 1 0-3.5l3.1-10.4h-3V8.6h3.3l1.9-6.4h3l-1.7 6.4h4.4v1.2l-4.7-.1ZM123.8 9.7l-3.3 11.5c-.5 1.7 0 2.7 1.3 2.7 1.7 0 3.4-1.8 4.5-5.3h1.2c-1.2 4.5-3.5 6.7-6.7 6.7-.7 0-1.3 0-2-.3-.5-.3-1-.8-1.3-1.3a5 5 0 0 1 .1-3.5l3-10.4h-3V8.6h3.4l1.8-6.4h3.1l-1.8 6.4h4.5v1.2l-4.8-.1ZM130.4 16.1c1.1-4.3 4.8-8.1 8.6-8.1a4.1 4.1 0 0 1 3.8 3h.2l.7-2.4h3.1L143 21.8c-.4 1.3-.1 2 .7 2 1 0 1.7-1.1 2.3-3l1.2-4.1h1.2l-1.3 4.3c-.9 3.2-2.2 4.1-4 4.1-.4 0-.8 0-1.2-.2a2.6 2.6 0 0 1-1.5-1.8v-1.3h-.1a7.4 7.4 0 0 1-5.6 3.6c-3.8 0-5.4-5-4.3-9.2Zm11 .8c1.4-5 0-7.7-2.6-7.7a4 4 0 0 0-3.7 3.4l-2.1 7.6c-.8 2.6.2 4 1.8 4 2.7 0 5.5-3.4 6.5-7.3Z"/><path fill="#1E1E1E" d="M0 35h16.5v3H3.2v7.2H15v2.9H3.2v10.8H0V35.1ZM32.2 43.3c1.5 1.5 2.3 3.6 2.3 6.5 0 3-.7 5.2-2 7-1.4 1.8-3.5 2.7-6.3 2.7a7 7 0 0 1-5.7-2.4 9.6 9.6 0 0 1-2-6.5c0-3 .7-5.2 2.1-7a7.4 7.4 0 0 1 6-2.6c2.2 0 4 .8 5.6 2.3Zm-1.8 11.5c.7-1.4 1-3 1-4.9 0-1.6-.2-3-.7-4-.8-1.5-2.2-2.3-4.2-2.3-1.8 0-3 .7-3.9 2-.8 1.4-1.2 3-1.2 5 0 1.9.4 3.3 1.2 4.6.8 1.2 2 1.8 3.8 1.8 2 0 3.3-.7 4-2.2ZM41 41.5v11.6c0 .8.1 1.6.4 2.1.5 1 1.5 1.6 2.8 1.6 2 0 3.4-1 4-2.7.5-1 .7-2.4.7-4v-8.6h2.9V59H49v-2.6c-.3.7-.8 1.2-1.3 1.7a6 6 0 0 1-4 1.4c-2.5 0-4.1-.9-5-2.5-.5-1-.7-2-.7-3.6V41.5h3ZM56.5 41.5h2.8V44c.8-1 1.7-1.7 2.6-2.2 1-.4 2-.7 3.1-.7 2.5 0 4.1.9 5 2.6.5 1 .7 2.3.7 4V59h-3v-11c0-1-.1-1.9-.4-2.5-.6-1-1.5-1.6-2.9-1.6-.6 0-1.2 0-1.7.2-.8.2-1.5.7-2 1.4-.6.6-.9 1.2-1 1.8-.2.6-.2 1.5-.2 2.6V59h-3V41.5ZM84.6 42l1.7 1.8V35h2.8v24h-2.6v-2.5c-.7 1-1.5 1.8-2.4 2.3-1 .5-2 .7-3.2.7-2 0-3.6-.8-5-2.4a9.6 9.6 0 0 1-2.1-6.5c0-2.6.6-4.7 2-6.6a6.3 6.3 0 0 1 5.4-2.8c1.4 0 2.5.3 3.4.9ZM78 55.2c.7 1.3 2 1.9 3.7 1.9a4 4 0 0 0 3.4-1.8 8.2 8.2 0 0 0 1.3-5c0-2.1-.5-3.8-1.4-4.8-.9-1-2-1.6-3.3-1.6-1.5 0-2.6.6-3.6 1.7-.9 1.1-1.3 2.8-1.3 5 0 1.8.4 3.4 1.2 4.6ZM102.8 48.4c.7-.1 1.1-.4 1.4-.8l.1-1.2c0-1-.3-1.7-1-2.1-.7-.5-1.7-.7-3-.7-1.6 0-2.6.4-3.3 1.2-.3.5-.6 1.2-.7 2h-2.7c0-2 .7-3.6 2-4.4a8.5 8.5 0 0 1 4.7-1.3c2 0 3.7.4 5 1.2a4 4 0 0 1 1.9 3.6v10c0 .3 0 .6.2.8l.8.2h.9V59a7.4 7.4 0 0 1-2 .3c-1 0-1.7-.4-2.2-1a4 4 0 0 1-.5-1.7 8 8 0 0 1-6.2 2.9c-1.6 0-3-.5-4-1.5s-1.5-2.2-1.5-3.6c0-1.6.5-2.9 1.5-3.8 1-.9 2.3-1.4 4-1.6l4.6-.6Zm-6.1 7.9c.6.5 1.3.7 2.2.7 1 0 2-.2 3-.7a4 4 0 0 0 2.4-3.9v-2.3a5 5 0 0 1-1.4.6l-1.7.3-1.7.2a7 7 0 0 0-2.4.7c-1 .5-1.4 1.3-1.4 2.4 0 .8.3 1.5 1 2ZM112.6 36.7h3v4.8h2.7V44h-2.8v11.3c0 .7.2 1 .6 1.3l1.2.1h1v2.3a10.8 10.8 0 0 1-2.2.3c-1.4 0-2.3-.4-2.8-1-.5-.8-.7-1.7-.7-2.8V44h-2.4v-2.4h2.4v-4.8ZM121.2 35h3v3.4h-3V35Zm0 6.6h3V59h-3V41.6ZM141.2 43.3c1.5 1.5 2.3 3.6 2.3 6.5 0 3-.7 5.2-2 7-1.4 1.8-3.5 2.7-6.3 2.7a7 7 0 0 1-5.7-2.4 9.6 9.6 0 0 1-2-6.5c0-3 .7-5.2 2.1-7a7.4 7.4 0 0 1 6-2.6c2.2 0 4 .8 5.6 2.3Zm-1.8 11.5c.7-1.4 1-3 1-4.9 0-1.6-.2-3-.7-4-.8-1.5-2.2-2.3-4.2-2.3-1.8 0-3 .7-3.9 2-.8 1.4-1.2 3-1.2 5 0 1.9.4 3.3 1.2 4.6.8 1.2 2 1.8 3.8 1.8 2 0 3.3-.7 4-2.2ZM147 41.5h2.8V44c.9-1 1.7-1.7 2.6-2.2 1-.4 2-.7 3.1-.7 2.5 0 4.2.9 5 2.6.5 1 .7 2.3.7 4V59h-3v-11c0-1-.1-1.9-.4-2.5-.5-1-1.5-1.6-2.8-1.6-.7 0-1.3 0-1.7.2-.8.2-1.5.7-2.1 1.4-.5.6-.8 1.2-1 1.8l-.2 2.6V59h-3V41.5Z"/></svg>